<?xml version="1.0" encoding="UTF-8"?>
<svg id="uuid-313c426b-d9f1-4658-be15-2b26340db557" data-name="Layer 1" xmlns="http://www.w3.org/2000/svg" xmlns:xlink="http://www.w3.org/1999/xlink" viewBox="0 0 770.87 169.5">
  <defs>
    <style>
      .uuid-e42ba887-1df8-495e-a078-b7f1c129acf0 {
        fill: none;
      }

      .uuid-572df51a-3391-45d9-9527-51a87cd2982d {
        fill: #00a784;
      }

      .uuid-ce6654e6-1039-45e5-b049-79d7a68ec595 {
        fill: #ffffff;
      }

      .uuid-bef83e4f-2b7e-4b0c-a964-e7566fdf3d4e {
        clip-path: url(#uuid-d8ef288e-803f-47cd-b208-246b7ca1044f);
      }
    </style>
    <clipPath id="uuid-d8ef288e-803f-47cd-b208-246b7ca1044f">
      <rect class="uuid-e42ba887-1df8-495e-a078-b7f1c129acf0" y="2" width="165" height="165"/>
    </clipPath>
  </defs>
  <g class="uuid-bef83e4f-2b7e-4b0c-a964-e7566fdf3d4e">
    <g>
      <path class="uuid-572df51a-3391-45d9-9527-51a87cd2982d" d="m82.48,2v82.48L0,2h82.48Z"/>
      <path class="uuid-572df51a-3391-45d9-9527-51a87cd2982d" d="m165,84.48v82.52l-82.52-82.52h82.52Z"/>
      <path class="uuid-572df51a-3391-45d9-9527-51a87cd2982d" d="m165,2v82.48L82.48,2h82.52Z"/>
    </g>
  </g>
  <path class="uuid-ce6654e6-1039-45e5-b049-79d7a68ec595" d="m264.5,167h32.5l36-121.25h.75l35,121.25h33L453.5,2.5h-29.75l-37,127.25h-.75L350,3.5h-30l-36.5,126.25h-.75L245.25,2.5h-32.25l51.5,164.5Z"/>
  <path class="uuid-ce6654e6-1039-45e5-b049-79d7a68ec595" d="m531.19,167h29.75v-65.25L626.69,2.5h-33.25l-44.5,73.25h-.75L503.44,2.5h-37.75l65.5,99.25v65.25Z"/>
  <path class="uuid-ce6654e6-1039-45e5-b049-79d7a68ec595" d="m699.37,169.5c56,0,71.5-24.75,71.5-51.25,0-15.25-6.5-26.75-17.75-32.5-10.25-5.5-26.25-8.25-43.5-11-14.25-2-32.75-5-40-8.5-6.5-3-9.75-8.5-9.75-17.75,0-15,14.75-25.25,39.5-25.25s39,11.5,39,35.75h27c0-37.5-17.75-59-66.5-59-43,0-68.75,21-68.75,51,0,15.5,6.25,26.75,16.25,33,9,5.75,26.5,9.5,43,11.75,14.25,2,32,4.25,40.25,7.5,7.75,2.75,11.5,8,11.5,17,0,13.5-8.5,26-42,26-31.5,0-41.5-14.5-41.5-35.5h-27c0,30,14.25,58.75,68.75,58.75Z"/>
</svg>
